<?xml version="1.0" encoding="UTF-8"?>
<!-- Created with Inkscape (http://www.inkscape.org/) -->
<svg width="1024" height="1024" version="1.1" viewBox="0 0 270.93 270.93" xmlns="http://www.w3.org/2000/svg">
 <defs>
  <linearGradient id="linearGradient251" x1="512" x2="512" y1="100" y2="924" gradientTransform="matrix(.28114 0 0 .28114 -8.4775 -8.4772)" gradientUnits="userSpaceOnUse">
   <stop stop-color="#2B383D" offset="0"/>
   <stop stop-color="#172024" offset="1"/>
  </linearGradient>
  <linearGradient id="paint1_linear_1_2" x1="513.5" x2="513.5" y1="205" y2="667.42" gradientTransform="matrix(.38915 0 0 .38915 -62.909 -64.661)" gradientUnits="userSpaceOnUse">
   <stop stop-color="#6964FF" offset="0"/>
   <stop stop-color="#5752FF" offset="1"/>
  </linearGradient>
 </defs>
 <g>
  <path d="m7.9375 97.926v-66.59c0-11.699 11.699-23.398 23.398-23.398h208.26c11.699 0 23.398 11.699 23.398 23.398v208.26c0 11.699-11.699 23.398-23.398 23.398h-208.26c-11.699 0-23.398-11.699-23.398-23.398v-66.59z" fill="#181e21" stroke-width=".30954"/>
  <path d="m19.638 101.37v-70.036c0-6.2966 6.1381-11.699 11.699-11.699h208.27c6.1935 0 11.699 5.3865 11.699 11.699v70.036 68.194 70.036c0 6.265-5.5404 11.699-11.699 11.699-6.1586 0-70.036 1e-5 -70.036 1e-5h-68.194s-64.219-1e-5 -70.036-1e-5c-5.8162 0-11.699-5.3664-11.699-11.699v-70.036z" fill="url(#linearGradient251)" stroke="#262626" stroke-width=".61907"/>
  <path d="m62.419 111.25c0-4.9578 4.9578-8.0086 16.971-8.0086l-4.0045 21.928c-7.4366-4.9579-12.966-9.534-12.966-13.92zm32.034 54.153c0 5.1485-5.1485 8.5806-16.971 9.1527l4.1951-23.263c7.4366 4.9578 12.776 9.3434 12.776 14.111zm-20.975 47.672 3.6231-21.547c28.793-2.6696 40.045-14.301 40.045-27.077 0-13.157-16.017-23.454-30.7-32.415l5.3392-28.221c6.1019 0.57203 13.348 1.7161 21.928 3.4321l2.4789-19.64c-6.4832-0.9534-12.585-1.3348-18.306-1.7161l4.3858-20.975-18.878-0.1907-3.6231 21.356c-28.793 2.2882-40.045 14.301-40.045 27.077 0 12.966 16.017 22.882 30.7 31.461l-5.3392 29.556c-6.8646-0.38134-15.255-1.5255-24.98-3.2415l-3.8138 19.64c8.1993 0.95339 15.827 1.5254 22.691 1.7161l-4.1951 20.594zm124.1-15.064h21.356c2.6696-22.31 6.4832-67.312 8.962-118.22h-20.403c-0.57204 12.013-2.6696 83.519-3.4321 89.431h-0.57204a21043 21043 0 0 0-14.492-53.965h-11.632c-4.9578 19.068-8.39 33.368-13.538 53.965h-0.76273c-0.57207-5.9112-3.8138-77.418-4.1952-89.431h-21.166c2.4789 50.912 6.1019 95.913 8.7713 118.22h20.975l14.683-56.633z" fill="url(#paint1_linear_1_2)" stroke-width=".38915"/>
 </g>
</svg>
